<?xml version="1.0" encoding="utf-8"?>
<!-- Svg Vector Icons : http://www.onlinewebfonts.com/icon -->
<!DOCTYPE svg PUBLIC "-//W3C//DTD SVG 1.1//EN" "http://www.w3.org/Graphics/SVG/1.1/DTD/svg11.dtd">
<svg version="1.1" xmlns="http://www.w3.org/2000/svg" xmlns:xlink="http://www.w3.org/1999/xlink" x="0px" y="0px" viewBox="0 0 1000 1000" enable-background="new 0 0 1000 1000" xml:space="preserve">
<metadata> Svg Vector Icons : http://www.onlinewebfonts.com/icon </metadata>
<g><g><path d="M661.3,86.6V211c113.2,58.5,190.8,176.4,190.8,312.7c0,194.4-157.6,352.1-352,352.1c-194.5,0-352.2-157.7-352.2-352.1c0-125,65.4-234.6,163.5-297V97.4C148,169.9,33.7,333.3,33.7,523.7C33.7,781.2,242.5,990,500,990c257.6,0,466.3-208.8,466.3-466.3C966.2,322.9,839.1,152.4,661.3,86.6z"/><path d="M491,583.9c51.2,0,56.4-30.3,56.4-67.5V77.6c0-37.3-5.2-67.6-56.4-67.6c-51,0-56.3,30.3-56.3,67.6v438.8C434.7,553.7,440,583.9,491,583.9z"/></g><g></g><g></g><g></g><g></g><g></g><g></g><g></g><g></g><g></g><g></g><g></g><g></g><g></g><g></g><g></g></g>
</svg>